<svg xmlns:svg="http://www.w3.org/2000/svg" xmlns="http://www.w3.org/2000/svg" viewBox="0 0 751.69 169.95" height="169.95" width="779" xml:space="preserve" version="1.1">
<style>
.s0{
	fill-rule:nonzero;
	fill:#417dc8;
}

</style>  <g transform="matrix(1.3333333,0,0,-1.3333333,-51.438176,169.94667)">
    <g transform="matrix(0.1,0,0,0.1,29.100192,-0.33243503)">
      <g clip-path="url(#clipPath20)">
        <path d="M864.15 627.04C891.66 566.84 840.59 518.99 819.38 467.71 791.9 433.51 771.46 397.95 736.11 367.19l-5.51 259.84c30.63 30.77 107.63 51.28 133.55 0zm52.63 268.7c14.93-66.3-64.41-105.98-117.82-136.75l-62.86-27.35-5.51 4.79 2.36 273.52C801.3 986.7 873.61 952.5 916.79 895.74ZM565.63 1112.5c-32.22 1.38-57.35-10.93-86.42-15.72l0-9.59 5.51-598.97-5.51-4.8c-65.98 182.58-69.13 387.7-68.33 594.89-30.66-6.84-58.14-21.89-86.44-34.2-4.68-126.49 6.3-258.44 21.23-382.91l-31.43-47.86c-54.99 116.24-60.5 250.27-62.85 384.96-29.84-17.1-59.7-40.35-84.06-65.63l13.37-150.44c17.29-119.65 50.28-234.52 125.68-330.96 22.8 31.46 38.5 67.72 62.86 95.75 44-132.66 89.57-267.35 206.62-371.29l0 8.88zm70.72 2.05 2.33-936.76c32.22 17.07 59.73 43.76 89.57 66.32 118.64 110.08 221.55 225.65 240.4 371.29-0.79 44.45-31.45 86.16-75.43 107.37 50.28 31.46 110.78 70.42 122.56 125.11 7.86 47.2-7.86 92.32-47.13 125.82-95.05 74.52-207.41 123.75-332.3 140.85zm-44.8 84.8L348 1155.59 337.81 1112.5c-7.07-36.92-62.86-21.87-94.25-32.13-44.8 0.67-22-46.5-39.29-68.39-40.06-6.83-82.5-6.83-117.84-22.57L91.93 884.82C102.91 561.38 264.76 250.26 607.28 88.88 979.64 285.82 1140.69 635.91 1105.35 1009.95c-35.35 8.2-71.49 11.61-107.65 15.71-28.27 11.62-18.05 45.13-31.4 66.32l-102.14 13.7c-41.62-2.06-23.57 42.37-39.26 61.53-77.78 10.94-153.99 24.62-233.33 32.14zm311.89 34.19c6.27-23.25 6.27-50.61 25.92-66.33l117.85-18.46c7.07-21.21 6.27-49.92 29.04-61.56l120.23-17.76C1232.62 635.24 1070 208.55 607.28 0 264.76 139.49 47.15 447.2 18.08 763.79 4.71 854.72 1.59 950.45 0 1046.17l5.51 9.59 125.68 20.51c11.81 16.41 6.3 38.97 15.73 56.74 38.47 8.89 83.27 8.22 114.7 27.35l13.34 61.55 324.46 52.66 304.02-41.03M1552.99 406.9l-103.32 435.24 105.25 0 32.93-179.52M1552.99 406.9l-103.32 435.24 105.25 0 32.93-179.52M1552.99 406.9l-103.32 435.24 105.25 0 32.93-179.52M1552.99 406.9l-103.32 435.24 105.25 0 32.93-179.52M1552.99 406.9l-103.32 435.24 105.25 0 32.93-179.52c9.69-51.66 18.73-107.84 25.83-151.75l1.3 0c7.1 47.15 17.43 99.45 28.41 153.04l36.81 178.24 104.61 0 34.87-183.4c9.69-51.01 16.79-97.5 23.25-145.93l1.29 0c6.46 48.43 16.14 99.44 25.18 151.1l35.52 178.24 100.09 0-112.36-435.24-106.55 0-36.81 187.27c-8.39 43.91-15.49 84.59-20.66 134.31l-1.29 0c-7.75-49.08-14.86-90.41-25.19-134.31l-41.33-187.27-107.83 0M2232.95 592.23l-27.12 92.34c-7.75 25.83-15.5 58.12-21.96 83.95l-1.29 0c-6.45-25.83-12.91-58.76-20.02-83.95l-25.83-92.34zm-110.42-73.62-31-111.71-102.03 0 133.03 435.24 129.15 0 134.96-435.24-105.91 0-33.57 111.72-124.63 0M2542.24 649.06l38.75 0c49.08 0 78.13 24.54 78.13 62.64 0 40.03-27.12 60.06-72.32 60.7-23.89 0-37.45-1.93-44.56-3.23zm-97.5 187.27c31.64 5.16 78.78 9.04 131.08 9.04 64.58 0 109.78-9.69 140.78-34.22 25.83-20.66 40.03-51.01 40.03-91.05 0-55.53-39.39-93.63-76.84-107.2l0-1.94c30.35-12.27 47.14-41.33 58.12-81.37 13.56-49.07 27.12-105.9 35.51-122.69l-100.73 0c-7.11 12.27-17.44 47.79-30.35 101.38-11.62 54.24-30.36 69.1-70.39 69.74l-29.71 0 0-171.12-97.5 0 0 429.43M2827.65 406.9l0 435.24 114.94 0 90.41-159.5c25.83-45.85 51.66-100.09 71.03-149.17l1.93 0c-6.45 57.47-8.38 116.23-8.38 181.45l0 127.22 90.4 0 0-435.24-103.32 0-92.99 167.9c-25.83 46.49-54.24 102.68-75.55 153.69l-1.94-0.65c2.58-57.47 3.88-118.82 3.88-189.85l0-131.09-90.41 0M3532.14 590.94l-160.15 0 0-103.32 178.88 0 0-80.72-277.68 0 0 435.24 268.63 0 0-80.72-169.83 0 0-90.41 160.15 0 0-80.07M3715.52 649.06l38.75 0c49.08 0 78.14 24.54 78.14 62.64 0 40.03-27.12 60.06-72.32 60.7-23.9 0-37.46-1.93-44.57-3.23zm-97.51 187.27c31.65 5.16 78.78 9.04 131.1 9.04 64.57 0 109.77-9.69 140.77-34.22 25.83-20.66 40.04-51.01 40.04-91.05 0-55.53-39.4-93.63-76.85-107.2l0-1.94c30.35-12.27 47.14-41.33 58.12-81.37 13.56-49.07 27.12-105.9 35.52-122.69l-100.75 0c-7.1 12.27-17.43 47.79-30.34 101.38-11.63 54.24-30.35 69.1-70.39 69.74l-29.71 0 0-171.12-97.51 0 0 429.43M4228.87 476.65c9.69-1.29 21.31-1.29 38.1-1.29 44.56 0 83.95 16.79 83.95 62.64 0 43.91-39.39 61.35-88.46 61.35l-33.59 0zm0 193.08 32.29 0c51.66 0 79.43 21.31 79.43 53.6 0 32.93-25.18 50.37-69.74 50.37-21.31 0-33.58-1.29-41.98-2.58zm-97.51 166.6c25.83 5.16 78.14 9.04 127.22 9.04 60.05 0 96.87-5.82 128.51-24.54 30.35-16.14 52.3-45.84 52.3-85.24 0-38.75-22.6-74.91-71.68-92.99l0-1.29c49.73-13.56 86.54-51.01 86.54-107.2 0-39.39-18.09-70.38-45.21-92.34-31.64-25.18-84.59-39.39-171.12-39.39-48.43 0-84.6 3.23-106.56 6.46l0 427.48M4618.88 649.06l38.75 0c49.08 0 78.14 24.54 78.14 62.64 0 40.03-27.12 60.06-72.33 60.7-23.89 0-37.45-1.93-44.56-3.23zm-97.51 187.27c31.64 5.16 78.78 9.04 131.1 9.04 64.57 0 109.77-9.69 140.77-34.22 25.83-20.66 40.04-51.01 40.04-91.05 0-55.53-39.4-93.63-76.85-107.2l0-1.94c30.35-12.27 47.14-41.33 58.12-81.37 13.56-49.07 27.12-105.9 35.52-122.69l-100.75 0c-7.1 12.27-17.43 47.79-30.34 101.38-11.63 54.24-30.35 69.1-70.39 69.74l-29.71 0 0-171.12-97.51 0 0 429.43M4985.66 623.23c0-85.24 40.03-145.3 105.9-145.3 66.51 0 104.61 63.29 104.61 147.88 0 78.13-37.45 145.29-105.25 145.29-66.52 0-105.26-63.28-105.26-147.88zm314.47 5.81c0-142.71-86.52-229.24-213.74-229.24-129.15 0-204.7 97.51-204.7 221.49 0 130.44 83.31 227.95 211.8 227.95 133.68 0 206.64-100.09 206.64-220.2M5367.93 508.29c26.47-13.56 67.16-27.12 109.13-27.12 45.2 0 69.09 18.72 69.09 47.14 0 27.12-20.66 42.62-72.97 61.35-72.32 25.19-119.46 65.22-119.46 128.5 0 74.26 61.99 131.09 164.67 131.09 49.07 0 85.24-10.33 111.06-21.95l-21.95-79.43c-17.43 8.4-48.43 20.66-91.05 20.66-42.62 0-63.29-19.37-63.29-41.97 0-27.77 24.54-40.04 80.72-61.35 76.85-28.41 113.01-68.45 113.01-129.79 0-72.97-56.18-134.96-175.64-134.96-49.73 0-98.8 12.92-123.34 26.48l20.02 81.36M5703.06 459.21c0 34.88 23.9 60.06 58.13 60.06 34.22 0 57.47-24.53 57.47-60.05 0-34.22-23.25-59.41-58.13-59.41-33.57 0-57.47 25.18-57.47 59.41" class="s0"/>
      </g>
    </g>
  </g>
</svg>